<svg width="71" height="16" viewBox="0 0 71 16" fill="none" xmlns="http://www.w3.org/2000/svg">
<path d="M6.24338 12.16C5.43271 12.16 4.68071 12.016 3.98738 11.728C3.30471 11.4293 2.70738 11.0187 2.19538 10.496C1.68338 9.96267 1.28871 9.34933 1.01138 8.656C0.734044 7.952 0.595377 7.2 0.595377 6.4C0.595377 5.6 0.734044 4.85333 1.01138 4.16C1.28871 3.456 1.68338 2.84267 2.19538 2.32C2.70738 1.79733 3.30471 1.38667 3.98738 1.088C4.68071 0.789333 5.43271 0.639999 6.24338 0.639999C7.15004 0.639999 7.93404 0.789333 8.59538 1.088C9.25671 1.38667 9.84338 1.792 10.3554 2.304L9.10738 3.552C8.77671 3.18933 8.37138 2.90667 7.89138 2.704C7.42204 2.50133 6.87271 2.4 6.24338 2.4C5.68871 2.4 5.18204 2.496 4.72338 2.688C4.26471 2.88 3.86471 3.15733 3.52338 3.52C3.19271 3.872 2.93671 4.29333 2.75538 4.784C2.57404 5.27467 2.48338 5.81333 2.48338 6.4C2.48338 6.98667 2.57404 7.52533 2.75538 8.016C2.93671 8.50667 3.19271 8.93333 3.52338 9.296C3.86471 9.648 4.26471 9.92 4.72338 10.112C5.18204 10.304 5.68871 10.4 6.24338 10.4C6.92604 10.4 7.50204 10.2987 7.97138 10.096C8.45138 9.88267 8.85671 9.59467 9.18738 9.232L10.4354 10.48C9.92338 11.0027 9.32071 11.4133 8.62738 11.712C7.93404 12.0107 7.13938 12.16 6.24338 12.16ZM15.4429 12.16C14.6962 12.16 14.0189 11.984 13.4109 11.632C12.8029 11.2693 12.3175 10.784 11.9549 10.176C11.6029 9.568 11.4269 8.89067 11.4269 8.144C11.4269 7.39733 11.6029 6.72533 11.9549 6.128C12.3175 5.53067 12.8029 5.056 13.4109 4.704C14.0189 4.34133 14.6962 4.16 15.4429 4.16C16.2002 4.16 16.8829 4.336 17.4909 4.688C18.0989 5.04 18.5789 5.52 18.9309 6.128C19.2935 6.72533 19.4749 7.39733 19.4749 8.144C19.4749 8.89067 19.2935 9.568 18.9309 10.176C18.5789 10.784 18.0989 11.2693 17.4909 11.632C16.8829 11.984 16.2002 12.16 15.4429 12.16ZM15.4429 10.464C15.8802 10.464 16.2642 10.368 16.5949 10.176C16.9362 9.97333 17.1975 9.696 17.3789 9.344C17.5709 8.992 17.6669 8.592 17.6669 8.144C17.6669 7.696 17.5709 7.30133 17.3789 6.96C17.1869 6.61867 16.9255 6.352 16.5949 6.16C16.2642 5.95733 15.8802 5.856 15.4429 5.856C15.0162 5.856 14.6322 5.95733 14.2909 6.16C13.9602 6.352 13.6989 6.61867 13.5069 6.96C13.3255 7.30133 13.2349 7.696 13.2349 8.144C13.2349 8.592 13.3255 8.992 13.5069 9.344C13.6989 9.696 13.9602 9.97333 14.2909 10.176C14.6322 10.368 15.0162 10.464 15.4429 10.464ZM21.2585 12V4.32H23.0185V12H21.2585ZM26.3625 12V7.424C26.3625 6.912 26.2025 6.51733 25.8825 6.24C25.5625 5.952 25.1678 5.808 24.6985 5.808C24.3785 5.808 24.0905 5.872 23.8345 6C23.5892 6.128 23.3918 6.31467 23.2425 6.56C23.0932 6.79467 23.0185 7.08267 23.0185 7.424L22.3305 7.04C22.3305 6.45333 22.4585 5.94667 22.7145 5.52C22.9705 5.09333 23.3172 4.76267 23.7545 4.528C24.1918 4.28267 24.6825 4.16 25.2265 4.16C25.7705 4.16 26.2612 4.27733 26.6985 4.512C27.1358 4.74667 27.4825 5.07733 27.7385 5.504C27.9945 5.93067 28.1225 6.44267 28.1225 7.04V12H26.3625ZM31.4665 12V7.424C31.4665 6.912 31.3065 6.51733 30.9865 6.24C30.6665 5.952 30.2718 5.808 29.8025 5.808C29.4932 5.808 29.2105 5.872 28.9545 6C28.6985 6.128 28.4958 6.31467 28.3465 6.56C28.1972 6.79467 28.1225 7.08267 28.1225 7.424L27.1305 7.04C27.1838 6.45333 27.3545 5.94667 27.6425 5.52C27.9305 5.09333 28.2985 4.76267 28.7465 4.528C29.2052 4.28267 29.7065 4.16 30.2505 4.16C30.8052 4.16 31.3065 4.27733 31.7545 4.512C32.2025 4.74667 32.5598 5.07733 32.8265 5.504C33.0932 5.93067 33.2265 6.44267 33.2265 7.04V12H31.4665ZM39.4718 12.16C38.8851 12.16 38.3624 12.0373 37.9038 11.792C37.4451 11.536 37.0824 11.1893 36.8158 10.752C36.5598 10.3147 36.4318 9.81867 36.4318 9.264V7.056C36.4318 6.50133 36.5651 6.00533 36.8318 5.568C37.0984 5.13067 37.4611 4.78933 37.9198 4.544C38.3784 4.288 38.8958 4.16 39.4718 4.16C40.1651 4.16 40.7891 4.34133 41.3438 4.704C41.9091 5.056 42.3518 5.536 42.6718 6.144C43.0024 6.74133 43.1678 7.41867 43.1678 8.176C43.1678 8.92267 43.0024 9.6 42.6718 10.208C42.3518 10.8053 41.9091 11.28 41.3438 11.632C40.7891 11.984 40.1651 12.16 39.4718 12.16ZM39.1838 10.496C39.6104 10.496 39.9838 10.4 40.3038 10.208C40.6344 10.0053 40.8904 9.728 41.0718 9.376C41.2638 9.024 41.3598 8.61867 41.3598 8.16C41.3598 7.70133 41.2638 7.296 41.0718 6.944C40.8904 6.592 40.6344 6.32 40.3038 6.128C39.9838 5.92533 39.6104 5.824 39.1838 5.824C38.7571 5.824 38.3784 5.92533 38.0478 6.128C37.7171 6.32 37.4611 6.592 37.2798 6.944C37.0984 7.296 37.0078 7.70133 37.0078 8.16C37.0078 8.61867 37.0984 9.024 37.2798 9.376C37.4611 9.728 37.7171 10.0053 38.0478 10.208C38.3784 10.4 38.7571 10.496 39.1838 10.496ZM35.3598 15.2V4.32H37.1198V6.384L36.8158 8.256L37.1198 10.112V15.2H35.3598ZM48.177 12.16C47.4837 12.16 46.8543 11.984 46.289 11.632C45.7343 11.28 45.2917 10.8053 44.961 10.208C44.641 9.6 44.481 8.92267 44.481 8.176C44.481 7.41867 44.641 6.74133 44.961 6.144C45.2917 5.536 45.7343 5.056 46.289 4.704C46.8543 4.34133 47.4837 4.16 48.177 4.16C48.7637 4.16 49.281 4.288 49.729 4.544C50.1877 4.78933 50.5503 5.13067 50.817 5.568C51.0837 6.00533 51.217 6.50133 51.217 7.056V9.264C51.217 9.81867 51.0837 10.3147 50.817 10.752C50.561 11.1893 50.2037 11.536 49.745 11.792C49.2863 12.0373 48.7637 12.16 48.177 12.16ZM48.465 10.496C49.1157 10.496 49.6383 10.2773 50.033 9.84C50.4383 9.40267 50.641 8.84267 50.641 8.16C50.641 7.70133 50.5503 7.296 50.369 6.944C50.1877 6.592 49.9317 6.32 49.601 6.128C49.281 5.92533 48.9023 5.824 48.465 5.824C48.0383 5.824 47.6597 5.92533 47.329 6.128C47.009 6.32 46.753 6.592 46.561 6.944C46.3797 7.296 46.289 7.70133 46.289 8.16C46.289 8.61867 46.3797 9.024 46.561 9.376C46.753 9.728 47.009 10.0053 47.329 10.208C47.6597 10.4 48.0383 10.496 48.465 10.496ZM50.529 12V9.936L50.833 8.064L50.529 6.208V4.32H52.289V12H50.529ZM59.8263 12V7.568C59.8263 7.056 59.6609 6.63467 59.3303 6.304C59.0103 5.97333 58.5943 5.808 58.0823 5.808C57.7409 5.808 57.4369 5.88267 57.1703 6.032C56.9036 6.18133 56.6956 6.38933 56.5463 6.656C56.3969 6.92267 56.3223 7.22667 56.3223 7.568L55.6343 7.184C55.6343 6.59733 55.7623 6.08 56.0183 5.632C56.2743 5.17333 56.6263 4.816 57.0743 4.56C57.5329 4.29333 58.0449 4.16 58.6103 4.16C59.1863 4.16 59.6983 4.30933 60.1463 4.608C60.5943 4.896 60.9463 5.27467 61.2023 5.744C61.4583 6.20267 61.5863 6.68267 61.5863 7.184V12H59.8263ZM54.5623 12V4.32H56.3223V12H54.5623ZM66.1748 12.08L62.8948 4.32H64.8307L67.0708 10.016H66.5108L68.8788 4.32H70.8308L67.2628 12.08H66.1748ZM63.8868 15.2L66.2708 10.288L67.2628 12.08L65.8388 15.2H63.8868Z" fill="#A4B1B6"/>
</svg>
