<svg width="78" height="29" viewBox="0 0 78 29" fill="none" xmlns="http://www.w3.org/2000/svg">
<path d="M13.7404 12V0.799999H15.5804V12H13.7404ZM15.0044 12V10.32H21.2764V12H15.0044ZM15.0044 7.088V5.472H20.7324V7.088H15.0044ZM15.0044 2.48V0.799999H21.1964V2.48H15.0044ZM23.2579 12V4.32H25.0179V12H23.2579ZM28.3619 12V7.424C28.3619 6.912 28.2019 6.51733 27.8819 6.24C27.5619 5.952 27.1672 5.808 26.6979 5.808C26.3779 5.808 26.0899 5.872 25.8339 6C25.5885 6.128 25.3912 6.31467 25.2419 6.56C25.0925 6.79467 25.0179 7.08267 25.0179 7.424L24.3299 7.04C24.3299 6.45333 24.4579 5.94667 24.7139 5.52C24.9699 5.09333 25.3165 4.76267 25.7539 4.528C26.1912 4.28267 26.6819 4.16 27.2259 4.16C27.7699 4.16 28.2605 4.27733 28.6979 4.512C29.1352 4.74667 29.4819 5.07733 29.7379 5.504C29.9939 5.93067 30.1219 6.44267 30.1219 7.04V12H28.3619ZM33.4659 12V7.424C33.4659 6.912 33.3059 6.51733 32.9859 6.24C32.6659 5.952 32.2712 5.808 31.8019 5.808C31.4925 5.808 31.2099 5.872 30.9539 6C30.6979 6.128 30.4952 6.31467 30.3459 6.56C30.1965 6.79467 30.1219 7.08267 30.1219 7.424L29.1299 7.04C29.1832 6.45333 29.3539 5.94667 29.6419 5.52C29.9299 5.09333 30.2979 4.76267 30.7459 4.528C31.2045 4.28267 31.7059 4.16 32.2499 4.16C32.8045 4.16 33.3059 4.27733 33.7539 4.512C34.2019 4.74667 34.5592 5.07733 34.8259 5.504C35.0925 5.93067 35.2259 6.44267 35.2259 7.04V12H33.4659ZM40.5751 12.16C39.8818 12.16 39.2525 11.984 38.6871 11.632C38.1325 11.28 37.6898 10.8053 37.3591 10.208C37.0391 9.6 36.8791 8.92267 36.8791 8.176C36.8791 7.41867 37.0391 6.74133 37.3591 6.144C37.6898 5.536 38.1325 5.056 38.6871 4.704C39.2525 4.34133 39.8818 4.16 40.5751 4.16C41.1618 4.16 41.6791 4.288 42.1271 4.544C42.5858 4.78933 42.9485 5.13067 43.2151 5.568C43.4818 6.00533 43.6151 6.50133 43.6151 7.056V9.264C43.6151 9.81867 43.4818 10.3147 43.2151 10.752C42.9591 11.1893 42.6018 11.536 42.1431 11.792C41.6845 12.0373 41.1618 12.16 40.5751 12.16ZM40.8631 10.496C41.5138 10.496 42.0365 10.2773 42.4311 9.84C42.8365 9.40267 43.0391 8.84267 43.0391 8.16C43.0391 7.70133 42.9485 7.296 42.7671 6.944C42.5858 6.592 42.3298 6.32 41.9991 6.128C41.6791 5.92533 41.3005 5.824 40.8631 5.824C40.4365 5.824 40.0578 5.92533 39.7271 6.128C39.4071 6.32 39.1511 6.592 38.9591 6.944C38.7778 7.296 38.6871 7.70133 38.6871 8.16C38.6871 8.61867 38.7778 9.024 38.9591 9.376C39.1511 9.728 39.4071 10.0053 39.7271 10.208C40.0578 10.4 40.4365 10.496 40.8631 10.496ZM42.9271 12V9.936L43.2311 8.064L42.9271 6.208V4.32H44.6871V12H42.9271ZM46.9764 12V4.32H48.7364V12H46.9764ZM47.8564 2.912C47.5577 2.912 47.307 2.81067 47.1044 2.608C46.9124 2.40533 46.8164 2.15467 46.8164 1.856C46.8164 1.55733 46.9124 1.30667 47.1044 1.104C47.307 0.901333 47.5577 0.799999 47.8564 0.799999C48.1657 0.799999 48.4164 0.901333 48.6084 1.104C48.8004 1.30667 48.8964 1.55733 48.8964 1.856C48.8964 2.15467 48.8004 2.40533 48.6084 2.608C48.4164 2.81067 48.1657 2.912 47.8564 2.912ZM51.0304 12V0.48H52.7904V12H51.0304ZM61.1682 6.768L61.0882 4.24L59.0242 5.632L58.2882 4.208L60.6242 3.36L58.6882 1.856L59.8242 0.719999L61.3282 2.656L62.1762 0.32L63.6162 1.056L62.2082 3.12L64.7362 3.2L64.4802 4.784L62.0642 4.08L62.7682 6.512L61.1682 6.768Z" fill="white"/>
<path d="M6.305 25.282V24.571H7.997C8.363 24.571 8.645 24.478 8.843 24.292C9.041 24.106 9.14 23.854 9.14 23.536C9.14 23.236 9.041 22.987 8.843 22.789C8.651 22.591 8.372 22.492 8.006 22.492H6.305V21.754H8.033C8.429 21.754 8.774 21.832 9.068 21.988C9.362 22.138 9.587 22.345 9.743 22.609C9.905 22.873 9.986 23.176 9.986 23.518C9.986 23.872 9.905 24.181 9.743 24.445C9.587 24.709 9.362 24.916 9.068 25.066C8.774 25.21 8.429 25.282 8.033 25.282H6.305ZM5.738 28V21.754H6.584V28H5.738ZM9.338 28L7.07 25.201L7.871 24.922L10.409 28H9.338ZM13.9839 28V21.754H14.8299V28H13.9839ZM14.5599 28V27.226H18.1419V28H14.5599ZM14.5599 25.174V24.436H17.8449V25.174H14.5599ZM14.5599 22.528V21.754H18.0969V22.528H14.5599ZM24.7137 28.09C24.2697 28.09 23.8557 28.009 23.4717 27.847C23.0877 27.679 22.7517 27.448 22.4637 27.154C22.1757 26.854 21.9507 26.509 21.7887 26.119C21.6267 25.729 21.5457 25.312 21.5457 24.868C21.5457 24.418 21.6267 24.001 21.7887 23.617C21.9507 23.227 22.1727 22.885 22.4547 22.591C22.7427 22.297 23.0757 22.069 23.4537 21.907C23.8377 21.745 24.2517 21.664 24.6957 21.664C25.1397 21.664 25.5507 21.745 25.9287 21.907C26.3127 22.069 26.6487 22.297 26.9367 22.591C27.2247 22.885 27.4467 23.227 27.6027 23.617C27.7647 24.007 27.8457 24.427 27.8457 24.877C27.8457 25.321 27.7647 25.738 27.6027 26.128C27.4467 26.518 27.2247 26.86 26.9367 27.154C26.6547 27.448 26.3217 27.679 25.9377 27.847C25.5597 28.009 25.1517 28.09 24.7137 28.09ZM24.6957 27.28C25.1397 27.28 25.5327 27.178 25.8747 26.974C26.2167 26.764 26.4837 26.479 26.6757 26.119C26.8737 25.753 26.9727 25.336 26.9727 24.868C26.9727 24.52 26.9157 24.202 26.8017 23.914C26.6937 23.62 26.5377 23.365 26.3337 23.149C26.1297 22.933 25.8897 22.768 25.6137 22.654C25.3377 22.534 25.0317 22.474 24.6957 22.474C24.2517 22.474 23.8587 22.576 23.5167 22.78C23.1747 22.984 22.9047 23.266 22.7067 23.626C22.5147 23.986 22.4187 24.4 22.4187 24.868C22.4187 25.216 22.4757 25.54 22.5897 25.84C22.7037 26.134 22.8597 26.389 23.0577 26.605C23.2617 26.815 23.5017 26.98 23.7777 27.1C24.0597 27.22 24.3657 27.28 24.6957 27.28ZM27.7017 28.441L24.7767 25.516L25.3257 24.967L28.2417 27.892L27.7017 28.441ZM34.2571 28.09C33.7951 28.09 33.3811 27.988 33.0151 27.784C32.6551 27.574 32.3701 27.289 32.1601 26.929C31.9501 26.563 31.8451 26.149 31.8451 25.687V21.754H32.6911V25.669C32.6911 25.999 32.7601 26.284 32.8981 26.524C33.0361 26.764 33.2221 26.95 33.4561 27.082C33.6961 27.214 33.9631 27.28 34.2571 27.28C34.5631 27.28 34.8301 27.214 35.0581 27.082C35.2921 26.95 35.4751 26.764 35.6071 26.524C35.7451 26.284 35.8141 26.002 35.8141 25.678V21.754H36.6691V25.696C36.6691 26.158 36.5641 26.569 36.3541 26.929C36.1441 27.289 35.8591 27.574 35.4991 27.784C35.1391 27.988 34.7251 28.09 34.2571 28.09ZM40.7607 28V21.754H41.6067V28H40.7607ZM46.348 25.282V24.571H48.04C48.406 24.571 48.688 24.478 48.886 24.292C49.084 24.106 49.183 23.854 49.183 23.536C49.183 23.236 49.084 22.987 48.886 22.789C48.694 22.591 48.415 22.492 48.049 22.492H46.348V21.754H48.076C48.472 21.754 48.817 21.832 49.111 21.988C49.405 22.138 49.63 22.345 49.786 22.609C49.948 22.873 50.029 23.176 50.029 23.518C50.029 23.872 49.948 24.181 49.786 24.445C49.63 24.709 49.405 24.916 49.111 25.066C48.817 25.21 48.472 25.282 48.076 25.282H46.348ZM45.781 28V21.754H46.627V28H45.781ZM49.381 28L47.113 25.201L47.914 24.922L50.452 28H49.381ZM54.0269 28V21.754H54.8729V28H54.0269ZM54.6029 28V27.226H58.1849V28H54.6029ZM54.6029 25.174V24.436H57.8879V25.174H54.6029ZM54.6029 22.528V21.754H58.1399V22.528H54.6029ZM62.5935 28V27.226H64.3305C64.7925 27.226 65.1975 27.127 65.5455 26.929C65.8935 26.725 66.1635 26.446 66.3555 26.092C66.5535 25.738 66.6525 25.33 66.6525 24.868C66.6525 24.412 66.5535 24.007 66.3555 23.653C66.1575 23.299 65.8845 23.023 65.5365 22.825C65.1885 22.627 64.7865 22.528 64.3305 22.528H62.6025V21.754H64.3485C64.8045 21.754 65.2245 21.832 65.6085 21.988C65.9985 22.144 66.3345 22.363 66.6165 22.645C66.9045 22.927 67.1265 23.257 67.2825 23.635C67.4445 24.013 67.5255 24.427 67.5255 24.877C67.5255 25.321 67.4445 25.735 67.2825 26.119C67.1265 26.497 66.9075 26.827 66.6255 27.109C66.3435 27.391 66.0075 27.61 65.6175 27.766C65.2335 27.922 64.8165 28 64.3665 28H62.5935ZM62.0355 28V21.754H62.8815V28H62.0355Z" fill="#A4B1B6"/>
</svg>
