<svg width="73" height="13" viewBox="0 0 73 13" fill="none" xmlns="http://www.w3.org/2000/svg">
<path d="M0.609128 12V0.799999H2.44913V12H0.609128ZM1.87313 7.2V5.52H7.56913V7.2H1.87313ZM1.87313 2.48V0.799999H7.84113V2.48H1.87313ZM12.9036 12.16C12.253 12.16 11.6716 12.016 11.1596 11.728C10.6583 11.44 10.2636 11.0453 9.97563 10.544C9.69829 10.032 9.55963 9.44533 9.55963 8.784V4.32H11.3196V8.704C11.3196 9.07733 11.3783 9.39733 11.4956 9.664C11.6236 9.92 11.805 10.1173 12.0396 10.256C12.285 10.3947 12.573 10.464 12.9036 10.464C13.4156 10.464 13.805 10.3147 14.0716 10.016C14.349 9.70667 14.4876 9.26933 14.4876 8.704V4.32H16.2476V8.784C16.2476 9.456 16.1036 10.048 15.8156 10.56C15.5383 11.0613 15.149 11.456 14.6476 11.744C14.1463 12.0213 13.565 12.16 12.9036 12.16ZM18.3373 12V0.48H20.0973V12H18.3373ZM22.376 12V0.48H24.136V12H22.376ZM30.1779 12V0.799999H31.4579L32.0179 2.912V12H30.1779ZM37.9379 12L31.2339 3.248L31.4579 0.799999L38.1619 9.552L37.9379 12ZM37.9379 12L37.3779 10.032V0.799999H39.2179V12H37.9379ZM44.9426 12.16C44.2493 12.16 43.62 11.984 43.0546 11.632C42.5 11.28 42.0573 10.8053 41.7266 10.208C41.4066 9.6 41.2466 8.92267 41.2466 8.176C41.2466 7.41867 41.4066 6.74133 41.7266 6.144C42.0573 5.536 42.5 5.056 43.0546 4.704C43.62 4.34133 44.2493 4.16 44.9426 4.16C45.5293 4.16 46.0466 4.288 46.4946 4.544C46.9533 4.78933 47.316 5.13067 47.5826 5.568C47.8493 6.00533 47.9826 6.50133 47.9826 7.056V9.264C47.9826 9.81867 47.8493 10.3147 47.5826 10.752C47.3266 11.1893 46.9693 11.536 46.5106 11.792C46.052 12.0373 45.5293 12.16 44.9426 12.16ZM45.2306 10.496C45.8813 10.496 46.404 10.2773 46.7986 9.84C47.204 9.40267 47.4066 8.84267 47.4066 8.16C47.4066 7.70133 47.316 7.296 47.1346 6.944C46.9533 6.592 46.6973 6.32 46.3666 6.128C46.0466 5.92533 45.668 5.824 45.2306 5.824C44.804 5.824 44.4253 5.92533 44.0946 6.128C43.7746 6.32 43.5186 6.592 43.3266 6.944C43.1453 7.296 43.0546 7.70133 43.0546 8.16C43.0546 8.61867 43.1453 9.024 43.3266 9.376C43.5186 9.728 43.7746 10.0053 44.0946 10.208C44.4253 10.4 44.804 10.496 45.2306 10.496ZM47.2946 12V9.936L47.5986 8.064L47.2946 6.208V4.32H49.0546V12H47.2946ZM51.3279 12V4.32H53.0879V12H51.3279ZM56.4319 12V7.424C56.4319 6.912 56.2719 6.51733 55.9519 6.24C55.6319 5.952 55.2372 5.808 54.7679 5.808C54.4479 5.808 54.1599 5.872 53.9039 6C53.6585 6.128 53.4612 6.31467 53.3119 6.56C53.1625 6.79467 53.0879 7.08267 53.0879 7.424L52.3999 7.04C52.3999 6.45333 52.5279 5.94667 52.7839 5.52C53.0399 5.09333 53.3865 4.76267 53.8239 4.528C54.2612 4.28267 54.7519 4.16 55.2959 4.16C55.8399 4.16 56.3305 4.27733 56.7679 4.512C57.2052 4.74667 57.5519 5.07733 57.8079 5.504C58.0639 5.93067 58.1919 6.44267 58.1919 7.04V12H56.4319ZM61.5359 12V7.424C61.5359 6.912 61.3759 6.51733 61.0559 6.24C60.7359 5.952 60.3412 5.808 59.8719 5.808C59.5625 5.808 59.2799 5.872 59.0239 6C58.7679 6.128 58.5652 6.31467 58.4159 6.56C58.2665 6.79467 58.1919 7.08267 58.1919 7.424L57.1999 7.04C57.2532 6.45333 57.4239 5.94667 57.7119 5.52C57.9999 5.09333 58.3679 4.76267 58.8159 4.528C59.2745 4.28267 59.7759 4.16 60.3199 4.16C60.8745 4.16 61.3759 4.27733 61.8239 4.512C62.2719 4.74667 62.6292 5.07733 62.8959 5.504C63.1625 5.93067 63.2959 6.44267 63.2959 7.04V12H61.5359ZM68.9971 12.16C68.2291 12.16 67.5358 11.9893 66.9171 11.648C66.3091 11.296 65.8238 10.816 65.4611 10.208C65.1091 9.6 64.9331 8.91733 64.9331 8.16C64.9331 7.40267 65.1091 6.72533 65.4611 6.128C65.8131 5.52 66.2878 5.04 66.8851 4.688C67.4931 4.336 68.1651 4.16 68.9011 4.16C69.6158 4.16 70.2451 4.32533 70.7891 4.656C71.3438 4.98667 71.7758 5.44 72.0851 6.016C72.4051 6.592 72.5651 7.248 72.5651 7.984C72.5651 8.112 72.5545 8.24533 72.5331 8.384C72.5225 8.512 72.5011 8.656 72.4691 8.816H66.1651V7.376H71.5571L70.9011 7.952C70.8798 7.48267 70.7891 7.088 70.6291 6.768C70.4691 6.448 70.2398 6.20267 69.9411 6.032C69.6531 5.86133 69.2958 5.776 68.8691 5.776C68.4211 5.776 68.0318 5.872 67.7011 6.064C67.3705 6.256 67.1145 6.528 66.9331 6.88C66.7518 7.22133 66.6611 7.632 66.6611 8.112C66.6611 8.592 66.7571 9.01333 66.9491 9.376C67.1411 9.73867 67.4131 10.0213 67.7651 10.224C68.1171 10.416 68.5225 10.512 68.9811 10.512C69.3758 10.512 69.7385 10.4427 70.0691 10.304C70.4105 10.1653 70.6985 9.96267 70.9331 9.696L72.0531 10.832C71.6798 11.2693 71.2265 11.6 70.6931 11.824C70.1598 12.048 69.5945 12.16 68.9971 12.16Z" fill="#A4B1B6"/>
</svg>
