<svg width="200" height="26" viewBox="0 0 200 26" fill="none" xmlns="http://www.w3.org/2000/svg">
<path d="M3.744 19.68C3.012 19.68 2.358 19.536 1.782 19.248C1.218 18.948 0.762 18.552 0.414 18.06L1.872 16.728C2.076 17.04 2.334 17.28 2.646 17.448C2.958 17.616 3.3 17.7 3.672 17.7C4.08 17.7 4.428 17.616 4.716 17.448C5.004 17.28 5.226 17.04 5.382 16.728C5.538 16.416 5.616 16.044 5.616 15.612V6.9H7.686V15.45C7.686 16.29 7.518 17.028 7.182 17.664C6.858 18.3 6.402 18.798 5.814 19.158C5.226 19.506 4.536 19.68 3.744 19.68ZM13.9525 19.68C13.1125 19.68 12.3505 19.482 11.6665 19.086C10.9825 18.678 10.4365 18.132 10.0285 17.448C9.63253 16.764 9.43453 16.002 9.43453 15.162C9.43453 14.322 9.63253 13.566 10.0285 12.894C10.4365 12.222 10.9825 11.688 11.6665 11.292C12.3505 10.884 13.1125 10.68 13.9525 10.68C14.8045 10.68 15.5725 10.878 16.2565 11.274C16.9405 11.67 17.4805 12.21 17.8765 12.894C18.2845 13.566 18.4885 14.322 18.4885 15.162C18.4885 16.002 18.2845 16.764 17.8765 17.448C17.4805 18.132 16.9405 18.678 16.2565 19.086C15.5725 19.482 14.8045 19.68 13.9525 19.68ZM13.9525 17.772C14.4445 17.772 14.8765 17.664 15.2485 17.448C15.6325 17.22 15.9265 16.908 16.1305 16.512C16.3465 16.116 16.4545 15.666 16.4545 15.162C16.4545 14.658 16.3465 14.214 16.1305 13.83C15.9145 13.446 15.6205 13.146 15.2485 12.93C14.8765 12.702 14.4445 12.588 13.9525 12.588C13.4725 12.588 13.0405 12.702 12.6565 12.93C12.2845 13.146 11.9905 13.446 11.7745 13.83C11.5705 14.214 11.4685 14.658 11.4685 15.162C11.4685 15.666 11.5705 16.116 11.7745 16.512C11.9905 16.908 12.2845 17.22 12.6565 17.448C13.0405 17.664 13.4725 17.772 13.9525 17.772ZM20.1531 19.5V10.86H22.1331V19.5H20.1531ZM21.1431 9.276C20.8071 9.276 20.5251 9.162 20.2971 8.934C20.0811 8.706 19.9731 8.424 19.9731 8.088C19.9731 7.752 20.0811 7.47 20.2971 7.242C20.5251 7.014 20.8071 6.9 21.1431 6.9C21.4911 6.9 21.7731 7.014 21.9891 7.242C22.2051 7.47 22.3131 7.752 22.3131 8.088C22.3131 8.424 22.2051 8.706 21.9891 8.934C21.7731 9.162 21.4911 9.276 21.1431 9.276ZM30.2759 19.5V14.514C30.2759 13.938 30.0899 13.464 29.7179 13.092C29.3579 12.72 28.8899 12.534 28.3139 12.534C27.9299 12.534 27.5879 12.618 27.2879 12.786C26.9879 12.954 26.7539 13.188 26.5859 13.488C26.4179 13.788 26.3339 14.13 26.3339 14.514L25.5599 14.082C25.5599 13.422 25.7039 12.84 25.9919 12.336C26.2799 11.82 26.6759 11.418 27.1799 11.13C27.6959 10.83 28.2719 10.68 28.9079 10.68C29.5559 10.68 30.1319 10.848 30.6359 11.184C31.1399 11.508 31.5359 11.934 31.8239 12.462C32.1119 12.978 32.2559 13.518 32.2559 14.082V19.5H30.2759ZM24.3539 19.5V10.86H26.3339V19.5H24.3539ZM39.1854 19.5V7.26H41.1654V19.5H39.1854ZM37.1154 12.66V10.86H43.2354V12.66H37.1154ZM50.5962 19.5V14.514C50.5962 13.938 50.4102 13.464 50.0382 13.092C49.6782 12.72 49.2102 12.534 48.6342 12.534C48.2502 12.534 47.9082 12.618 47.6082 12.786C47.3082 12.954 47.0742 13.188 46.9062 13.488C46.7382 13.788 46.6542 14.13 46.6542 14.514L45.8802 14.082C45.8802 13.422 46.0242 12.84 46.3122 12.336C46.6002 11.82 46.9962 11.418 47.5002 11.13C48.0162 10.83 48.5922 10.68 49.2282 10.68C49.8762 10.68 50.4522 10.824 50.9562 11.112C51.4602 11.4 51.8562 11.802 52.1442 12.318C52.4322 12.822 52.5762 13.41 52.5762 14.082V19.5H50.5962ZM44.6742 19.5V6.54H46.6542V19.5H44.6742ZM58.6022 19.68C57.7382 19.68 56.9582 19.488 56.2622 19.104C55.5782 18.708 55.0322 18.168 54.6242 17.484C54.2282 16.8 54.0302 16.032 54.0302 15.18C54.0302 14.328 54.2282 13.566 54.6242 12.894C55.0202 12.21 55.5542 11.67 56.2262 11.274C56.9102 10.878 57.6662 10.68 58.4942 10.68C59.2982 10.68 60.0062 10.866 60.6182 11.238C61.2422 11.61 61.7282 12.12 62.0762 12.768C62.4362 13.416 62.6162 14.154 62.6162 14.982C62.6162 15.126 62.6042 15.276 62.5802 15.432C62.5682 15.576 62.5442 15.738 62.5082 15.918H55.4162V14.298H61.4822L60.7442 14.946C60.7202 14.418 60.6182 13.974 60.4382 13.614C60.2582 13.254 60.0002 12.978 59.6642 12.786C59.3402 12.594 58.9382 12.498 58.4582 12.498C57.9542 12.498 57.5162 12.606 57.1442 12.822C56.7722 13.038 56.4842 13.344 56.2802 13.74C56.0762 14.124 55.9742 14.586 55.9742 15.126C55.9742 15.666 56.0822 16.14 56.2982 16.548C56.5142 16.956 56.8202 17.274 57.2162 17.502C57.6122 17.718 58.0682 17.826 58.5842 17.826C59.0282 17.826 59.4362 17.748 59.8082 17.592C60.1922 17.436 60.5162 17.208 60.7802 16.908L62.0402 18.186C61.6202 18.678 61.1102 19.05 60.5102 19.302C59.9102 19.554 59.2742 19.68 58.6022 19.68ZM71.317 19.5L67.177 6.9H69.211L72.325 16.602H71.785L74.827 6.9H76.267L79.309 16.602H78.769L81.883 6.9H83.917L79.777 19.5H78.337L75.277 9.816H75.817L72.757 19.5H71.317ZM87.843 19.68C87.063 19.68 86.355 19.482 85.719 19.086C85.095 18.69 84.597 18.156 84.225 17.484C83.865 16.8 83.685 16.038 83.685 15.198C83.685 14.346 83.865 13.584 84.225 12.912C84.597 12.228 85.095 11.688 85.719 11.292C86.355 10.884 87.063 10.68 87.843 10.68C88.503 10.68 89.085 10.824 89.589 11.112C90.105 11.388 90.513 11.772 90.813 12.264C91.113 12.756 91.263 13.314 91.263 13.938V16.422C91.263 17.046 91.113 17.604 90.813 18.096C90.525 18.588 90.123 18.978 89.607 19.266C89.091 19.542 88.503 19.68 87.843 19.68ZM88.167 17.808C88.899 17.808 89.487 17.562 89.931 17.07C90.387 16.578 90.615 15.948 90.615 15.18C90.615 14.664 90.513 14.208 90.309 13.812C90.105 13.416 89.817 13.11 89.445 12.894C89.085 12.666 88.659 12.552 88.167 12.552C87.687 12.552 87.261 12.666 86.889 12.894C86.529 13.11 86.241 13.416 86.025 13.812C85.821 14.208 85.719 14.664 85.719 15.18C85.719 15.696 85.821 16.152 86.025 16.548C86.241 16.944 86.529 17.256 86.889 17.484C87.261 17.7 87.687 17.808 88.167 17.808ZM90.489 19.5V17.178L90.831 15.072L90.489 12.984V10.86H92.469V19.5H90.489ZM94.6844 19.5V10.86H96.6644V19.5H94.6844ZM95.6744 9.276C95.3384 9.276 95.0564 9.162 94.8284 8.934C94.6124 8.706 94.5044 8.424 94.5044 8.088C94.5044 7.752 94.6124 7.47 94.8284 7.242C95.0564 7.014 95.3384 6.9 95.6744 6.9C96.0224 6.9 96.3044 7.014 96.5204 7.242C96.7364 7.47 96.8444 7.752 96.8444 8.088C96.8444 8.424 96.7364 8.706 96.5204 8.934C96.3044 9.162 96.0224 9.276 95.6744 9.276ZM100.199 19.5V7.26H102.179V19.5H100.199ZM98.1291 12.66V10.86H104.249V12.66H98.1291ZM105.688 19.5V6.54H107.668V19.5H105.688ZM109.889 19.5V10.86H111.869V19.5H109.889ZM110.879 9.276C110.543 9.276 110.261 9.162 110.033 8.934C109.817 8.706 109.709 8.424 109.709 8.088C109.709 7.752 109.817 7.47 110.033 7.242C110.261 7.014 110.543 6.9 110.879 6.9C111.227 6.9 111.509 7.014 111.725 7.242C111.941 7.47 112.049 7.752 112.049 8.088C112.049 8.424 111.941 8.706 111.725 8.934C111.509 9.162 111.227 9.276 110.879 9.276ZM116.916 19.68C116.436 19.68 115.974 19.62 115.53 19.5C115.086 19.368 114.678 19.188 114.306 18.96C113.934 18.72 113.61 18.432 113.334 18.096L114.594 16.836C114.894 17.184 115.236 17.448 115.62 17.628C116.016 17.796 116.46 17.88 116.952 17.88C117.396 17.88 117.732 17.814 117.96 17.682C118.188 17.55 118.302 17.358 118.302 17.106C118.302 16.842 118.194 16.638 117.978 16.494C117.762 16.35 117.48 16.23 117.132 16.134C116.796 16.026 116.436 15.918 116.052 15.81C115.68 15.702 115.32 15.558 114.972 15.378C114.636 15.186 114.36 14.928 114.144 14.604C113.928 14.28 113.82 13.86 113.82 13.344C113.82 12.792 113.946 12.318 114.198 11.922C114.462 11.526 114.828 11.22 115.296 11.004C115.776 10.788 116.346 10.68 117.006 10.68C117.702 10.68 118.314 10.806 118.842 11.058C119.382 11.298 119.832 11.664 120.192 12.156L118.932 13.416C118.68 13.104 118.392 12.87 118.068 12.714C117.744 12.558 117.372 12.48 116.952 12.48C116.556 12.48 116.25 12.54 116.034 12.66C115.818 12.78 115.71 12.954 115.71 13.182C115.71 13.422 115.818 13.608 116.034 13.74C116.25 13.872 116.526 13.986 116.862 14.082C117.21 14.178 117.57 14.286 117.942 14.406C118.326 14.514 118.686 14.67 119.022 14.874C119.37 15.066 119.652 15.33 119.868 15.666C120.084 15.99 120.192 16.416 120.192 16.944C120.192 17.784 119.898 18.45 119.31 18.942C118.722 19.434 117.924 19.68 116.916 19.68ZM123.139 19.5V7.26H125.119V19.5H123.139ZM121.069 12.66V10.86H127.189V12.66H121.069ZM138.153 19.5V14.514C138.153 13.938 137.967 13.464 137.595 13.092C137.235 12.72 136.767 12.534 136.191 12.534C135.807 12.534 135.465 12.618 135.165 12.786C134.865 12.954 134.631 13.188 134.463 13.488C134.295 13.788 134.211 14.13 134.211 14.514L133.437 14.082C133.437 13.422 133.581 12.84 133.869 12.336C134.157 11.82 134.553 11.418 135.057 11.13C135.573 10.83 136.149 10.68 136.785 10.68C137.433 10.68 138.009 10.848 138.513 11.184C139.017 11.508 139.413 11.934 139.701 12.462C139.989 12.978 140.133 13.518 140.133 14.082V19.5H138.153ZM132.231 19.5V10.86H134.211V19.5H132.231ZM146.105 19.68C145.265 19.68 144.503 19.482 143.819 19.086C143.135 18.678 142.589 18.132 142.181 17.448C141.785 16.764 141.587 16.002 141.587 15.162C141.587 14.322 141.785 13.566 142.181 12.894C142.589 12.222 143.135 11.688 143.819 11.292C144.503 10.884 145.265 10.68 146.105 10.68C146.957 10.68 147.725 10.878 148.409 11.274C149.093 11.67 149.633 12.21 150.029 12.894C150.437 13.566 150.641 14.322 150.641 15.162C150.641 16.002 150.437 16.764 150.029 17.448C149.633 18.132 149.093 18.678 148.409 19.086C147.725 19.482 146.957 19.68 146.105 19.68ZM146.105 17.772C146.597 17.772 147.029 17.664 147.401 17.448C147.785 17.22 148.079 16.908 148.283 16.512C148.499 16.116 148.607 15.666 148.607 15.162C148.607 14.658 148.499 14.214 148.283 13.83C148.067 13.446 147.773 13.146 147.401 12.93C147.029 12.702 146.597 12.588 146.105 12.588C145.625 12.588 145.193 12.702 144.809 12.93C144.437 13.146 144.143 13.446 143.927 13.83C143.723 14.214 143.621 14.658 143.621 15.162C143.621 15.666 143.723 16.116 143.927 16.512C144.143 16.908 144.437 17.22 144.809 17.448C145.193 17.664 145.625 17.772 146.105 17.772ZM154.597 19.5L151.123 10.86H153.175L155.515 17.142L154.903 17.16L157.189 10.86H158.341L160.627 17.16L160.015 17.142L162.355 10.86H164.407L160.933 19.5H159.781L157.441 13.524H158.089L155.749 19.5H154.597ZM166.079 15.324L165.809 6.54H167.879L167.609 15.324H166.079ZM166.835 19.68C166.451 19.68 166.133 19.554 165.881 19.302C165.641 19.038 165.521 18.72 165.521 18.348C165.521 17.964 165.641 17.646 165.881 17.394C166.133 17.142 166.451 17.016 166.835 17.016C167.219 17.016 167.531 17.142 167.771 17.394C168.023 17.646 168.149 17.964 168.149 18.348C168.149 18.72 168.023 19.038 167.771 19.302C167.531 19.554 167.219 19.68 166.835 19.68Z" fill="white"/>
<path d="M200 13.0002L194.75 16.4643L194.75 9.53613L200 13.0002Z" fill="white"/>
</svg>
